<svg width="25" height="30" viewBox="0 0 25 30" fill="none" xmlns="http://www.w3.org/2000/svg">
<path d="M12.5 0C8.19219 0 4.6875 3.3645 4.6875 7.5V12H3.125C2.2962 12 1.50134 12.3161 0.915291 12.8787C0.32924 13.4413 0 14.2043 0 15V27C0 27.7956 0.32924 28.5587 0.915291 29.1213C1.50134 29.6839 2.2962 30 3.125 30H21.875C22.7038 30 23.4987 29.6839 24.0847 29.1213C24.6708 28.5587 25 27.7956 25 27V15C25 14.2043 24.6708 13.4413 24.0847 12.8787C23.4987 12.3161 22.7038 12 21.875 12H20.3125V7.5C20.3125 3.3645 16.8078 0 12.5 0ZM7.8125 7.5C7.8125 5.019 9.91562 3 12.5 3C15.0844 3 17.1875 5.019 17.1875 7.5V12H7.8125V7.5ZM14.0625 23.5845V27H10.9375V23.5845C10.3912 23.2842 9.95259 22.832 9.67942 22.2875C9.40625 21.7431 9.31138 21.1319 9.40732 20.5347C9.50326 19.9374 9.78549 19.3821 10.2168 18.9419C10.6481 18.5017 11.2083 18.1974 11.8234 18.069C12.2803 17.972 12.7541 17.9747 13.2098 18.0769C13.6654 18.1791 14.0914 18.3782 14.4562 18.6595C14.8211 18.9408 15.1155 19.2971 15.3178 19.7022C15.5201 20.1073 15.625 20.5508 15.625 21C15.6241 21.5246 15.4792 22.0397 15.2049 22.4935C14.9306 22.9472 14.5365 23.3235 14.0625 23.5845Z" fill="black"/>
</svg>
