<svg width="47" height="47" viewBox="0 0 47 47" fill="none" xmlns="http://www.w3.org/2000/svg">
<g clip-path="url(#clip0_609_478)">
<path d="M7.78822 19.2701C7.86699 18.2886 8.31257 17.3727 9.03622 16.705C9.75986 16.0372 10.7085 15.6665 11.6931 15.6667H35.3067C36.2914 15.6665 37.24 16.0372 37.9636 16.705C38.6873 17.3727 39.1329 18.2886 39.2116 19.2701L40.7842 38.8534C40.8274 39.3923 40.7586 39.9344 40.5821 40.4454C40.4056 40.9564 40.1252 41.4254 39.7586 41.8227C39.392 42.2201 38.9471 42.5372 38.4518 42.7542C37.9566 42.9712 37.4219 43.0833 36.8812 43.0834H10.1186C9.57798 43.0833 9.04322 42.9712 8.54801 42.7542C8.0528 42.5372 7.60788 42.2201 7.24125 41.8227C6.87462 41.4254 6.59423 40.9564 6.41772 40.4454C6.24122 39.9344 6.17243 39.3923 6.21568 38.8534L7.78822 19.2701V19.2701Z" stroke="black" stroke-width="2" stroke-linecap="round" stroke-linejoin="round"/>
<path d="M31.3332 21.5417V11.7501C31.3332 9.67255 30.5079 7.68011 29.0388 6.21108C27.5698 4.74204 25.5774 3.91675 23.4998 3.91675C21.4223 3.91675 19.4299 4.74204 17.9608 6.21108C16.4918 7.68011 15.6665 9.67255 15.6665 11.7501V21.5417" stroke="black" stroke-width="2" stroke-linecap="round" stroke-linejoin="round"/>
<circle cx="33.5" cy="15.5" r="11.5" fill="#F38181"/>
<circle cx="33.5" cy="15.5" r="11.5" fill="black" fill-opacity="0.2"/>
<path d="M30.455 18.63C31.415 17.83 32.18 17.165 32.75 16.635C33.32 16.095 33.795 15.535 34.175 14.955C34.555 14.375 34.745 13.805 34.745 13.245C34.745 12.735 34.625 12.335 34.385 12.045C34.145 11.755 33.775 11.61 33.275 11.61C32.775 11.61 32.39 11.78 32.12 12.12C31.85 12.45 31.71 12.905 31.7 13.485H29.66C29.7 12.285 30.055 11.375 30.725 10.755C31.405 10.135 32.265 9.825 33.305 9.825C34.445 9.825 35.32 10.13 35.93 10.74C36.54 11.34 36.845 12.135 36.845 13.125C36.845 13.905 36.635 14.65 36.215 15.36C35.795 16.07 35.315 16.69 34.775 17.22C34.235 17.74 33.53 18.37 32.66 19.11H37.085V20.85H29.675V19.29L30.455 18.63Z" fill="#393E46"/>
</g>
<defs>
<clipPath id="clip0_609_478">
<rect width="47" height="47" fill="white"/>
</clipPath>
</defs>
</svg>
