<svg width="47" height="47" viewBox="0 0 47 47" fill="none" xmlns="http://www.w3.org/2000/svg">
<g clip-path="url(#clip0_609_478)">
<path d="M7.78822 19.2701C7.86699 18.2886 8.31257 17.3727 9.03622 16.705C9.75986 16.0372 10.7085 15.6665 11.6931 15.6667H35.3067C36.2914 15.6665 37.24 16.0372 37.9636 16.705C38.6873 17.3727 39.1329 18.2886 39.2116 19.2701L40.7842 38.8534C40.8274 39.3923 40.7586 39.9344 40.5821 40.4454C40.4056 40.9564 40.1252 41.4254 39.7586 41.8227C39.392 42.2201 38.9471 42.5372 38.4518 42.7542C37.9566 42.9712 37.4219 43.0833 36.8812 43.0834H10.1186C9.57798 43.0833 9.04322 42.9712 8.54801 42.7542C8.0528 42.5372 7.60788 42.2201 7.24125 41.8227C6.87462 41.4254 6.59423 40.9564 6.41772 40.4454C6.24122 39.9344 6.17243 39.3923 6.21568 38.8534L7.78822 19.2701V19.2701Z" stroke="black" stroke-width="2" stroke-linecap="round" stroke-linejoin="round"/>
<path d="M31.3332 21.5417V11.7501C31.3332 9.67255 30.5079 7.68011 29.0388 6.21108C27.5698 4.74204 25.5774 3.91675 23.4998 3.91675C21.4223 3.91675 19.4299 4.74204 17.9608 6.21108C16.4918 7.68011 15.6665 9.67255 15.6665 11.7501V21.5417" stroke="black" stroke-width="2" stroke-linecap="round" stroke-linejoin="round"/>
<circle cx="33.5" cy="15.5" r="11.5" fill="#F38181"/>
<circle cx="33.5" cy="15.5" r="11.5" fill="black" fill-opacity="0.2"/>
<path d="M29.825 12.945C29.875 11.945 30.225 11.175 30.875 10.635C31.535 10.085 32.4 9.81 33.47 9.81C34.2 9.81 34.825 9.94 35.345 10.2C35.865 10.45 36.255 10.795 36.515 11.235C36.785 11.665 36.92 12.155 36.92 12.705C36.92 13.335 36.755 13.87 36.425 14.31C36.105 14.74 35.72 15.03 35.27 15.18V15.24C35.85 15.42 36.3 15.74 36.62 16.2C36.95 16.66 37.115 17.25 37.115 17.97C37.115 18.57 36.975 19.105 36.695 19.575C36.425 20.045 36.02 20.415 35.48 20.685C34.95 20.945 34.31 21.075 33.56 21.075C32.43 21.075 31.51 20.79 30.8 20.22C30.09 19.65 29.715 18.81 29.675 17.7H31.715C31.735 18.19 31.9 18.585 32.21 18.885C32.53 19.175 32.965 19.32 33.515 19.32C34.025 19.32 34.415 19.18 34.685 18.9C34.965 18.61 35.105 18.24 35.105 17.79C35.105 17.19 34.915 16.76 34.535 16.5C34.155 16.24 33.565 16.11 32.765 16.11H32.33V14.385H32.765C34.185 14.385 34.895 13.91 34.895 12.96C34.895 12.53 34.765 12.195 34.505 11.955C34.255 11.715 33.89 11.595 33.41 11.595C32.94 11.595 32.575 11.725 32.315 11.985C32.065 12.235 31.92 12.555 31.88 12.945H29.825Z" fill="#393E46"/>
</g>
<defs>
<clipPath id="clip0_609_478">
<rect width="47" height="47" fill="white"/>
</clipPath>
</defs>
</svg>
