<svg width="47" height="47" viewBox="0 0 47 47" fill="none" xmlns="http://www.w3.org/2000/svg">
<path d="M7.78822 19.27C7.86699 18.2885 8.31257 17.3727 9.03622 16.7049C9.75986 16.0371 10.7085 15.6665 11.6931 15.6667H35.3067C36.2914 15.6665 37.24 16.0371 37.9636 16.7049C38.6873 17.3727 39.1329 18.2885 39.2116 19.27L40.7842 38.8533C40.8274 39.3922 40.7586 39.9343 40.5821 40.4453C40.4056 40.9563 40.1252 41.4253 39.7586 41.8226C39.392 42.22 38.9471 42.5371 38.4518 42.7541C37.9566 42.9711 37.4219 43.0832 36.8812 43.0833H10.1186C9.57798 43.0832 9.04322 42.9711 8.54801 42.7541C8.0528 42.5371 7.60788 42.22 7.24125 41.8226C6.87462 41.4253 6.59423 40.9563 6.41772 40.4453C6.24122 39.9343 6.17243 39.3922 6.21568 38.8533L7.78822 19.27V19.27Z" stroke="black" stroke-width="2" stroke-linecap="round" stroke-linejoin="round"/>
<path d="M31.3332 21.5417V11.75C31.3332 9.67246 30.5079 7.68002 29.0388 6.21099C27.5698 4.74195 25.5774 3.91666 23.4998 3.91666C21.4223 3.91666 19.4299 4.74195 17.9608 6.21099C16.4918 7.68002 15.6665 9.67246 15.6665 11.75V21.5417" stroke="black" stroke-width="2" stroke-linecap="round" stroke-linejoin="round"/>
</svg>
